<svg xmlns="http://www.w3.org/2000/svg" viewBox="0 0 1231 1231" width="512" height="512" xmlns:c2pa="http://c2pa.org/manifest"><metadata><c2pa:manifest>AAAWgmp1bWIAAAAeanVtZGMycGEAEQAQgAAAqgA4m3EDYzJwYQAAABZcanVtYgAAAEdqdW1kYzJtYQARABCAAACqADibcQN1cm46YzJwYTo3MGZmOWZiMi04MWMxLTQ2ZDktYjEzZC03M2Y2YjMyOGEzNjAAAAADl2p1bWIAAAApanVtZGMyYXMAEQAQgAAAqgA4m3EDYzJwYS5hc3NlcnRpb25zAAAAALxqdW1iAAAARGp1bWRjYm9yABEAEIAAAKoAOJtxE2MycGEuaW5ncmVkaWVudC52MwAAAAAYYzJzaDxUSyozY9o2piyyShErHx8AAABwY2JvcqNpZGM6Zm9ybWF0bWltYWdlL3N2Zyt4bWxqaW5zdGFuY2VJRHgseG1wOmlpZDoyZTRlYzZkZC04YzJjLTQxYjYtYTBkOS1hMDA4ZGM4YTBhMWRscmVsYXRpb25zaGlwaHBhcmVudE9mAAAB4mp1bWIAAABBanVtZGNib3IAEQAQgAAAqgA4m3ETYzJwYS5hY3Rpb25zLnYyAAAAABhjMnNow+zWXi+iUNbf0lVorMU5ZQAAAZljYm9yomdhY3Rpb25zgqJmYWN0aW9ua2MycGEub3BlbmVkanBhcmFtZXRlcnOha2luZ3JlZGllbnRzgaJjdXJseC1zZWxmI2p1bWJmPWMycGEuYXNzZXJ0aW9ucy9jMnBhLmluZ3JlZGllbnQudjNkaGFzaFgg4r1NzY+lANlCaGJR0XoQb+YCjPNnbq03i5UMSIfFvgGkZmFjdGlvbngdY29tLmFudGhyb3BpYy5jbGF1ZGUucHJvdmlkZWRqcGFyYW1ldGVyc6F4H2NvbS5hbnRocm9waWMub3JpZ2luLWNvbmZpZGVuY2VndW5rbm93bmtkZXNjcmlwdGlvbnhmQ2xhdWRlIHByb3ZpZGVkIHRoaXMgZmlsZSBhdCB0aGUgcmVxdWVzdCBvZiBhIHVzZXIgYW5kIG1heSBoYXZlIGNyZWF0ZWQgb3IgbW9kaWZpZWQgdGhlIGZpbGUgY29udGVudHMubXNvZnR3YXJlQWdlbnShZG5hbWVmQ2xhdWRlcmFsbEFjdGlvbnNJbmNsdWRlZPUAAADIanVtYgAAAEBqdW1kY2JvcgARABCAAACqADibcRNjMnBhLmhhc2guZGF0YQAAAAAYYzJzaNcdb4yoZhddNEMO04z8+YEAAACAY2JvcqVjYWxnZnNoYTI1NmNwYWRNAAAAAAAAAAAAAAAAAGRoYXNoWCDGYDTni9/MDH5j6Y7IeLrH+erLNLorHXHAmsxWXWtAC2RuYW1lbmp1bWJmIG1hbmlmZXN0amV4Y2x1c2lvbnOBomVzdGFydBiYZmxlbmd0aBkeBAAAAj5qdW1iAAAAJ2p1bWRjMmNsABEAEIAAAKoAOJtxA2MycGEuY2xhaW0udjIAAAACD2Nib3KlY2FsZ2ZzaGEyNTZpc2lnbmF0dXJleE1zZWxmI2p1bWJmPS9jMnBhL3VybjpjMnBhOjcwZmY5ZmIyLTgxYzEtNDZkOS1iMTNkLTczZjZiMzI4YTM2MC9jMnBhLnNpZ25hdHVyZWppbnN0YW5jZUlEeCx4bXA6aWlkOmM0YWE1ODMxLWRkZmUtNDBhYi1hMGMyLTNjNzRlNTY5OGFjNHJjcmVhdGVkX2Fzc2VydGlvbnODomN1cmx4LXNlbGYjanVtYmY9YzJwYS5hc3NlcnRpb25zL2MycGEuaW5ncmVkaWVudC52M2RoYXNoWCDivU3Nj6UA2UJoYlHRehBv5gKM82durTeLlQxIh8W+AaJjdXJseCpzZWxmI2p1bWJmPWMycGEuYXNzZXJ0aW9ucy9jMnBhLmFjdGlvbnMudjJkaGFzaFgg/Mn0qeNMUt9HIUYlZ0qqM5EoGCnupt1mJsHRaQ75GrGiY3VybHgpc2VsZiNqdW1iZj1jMnBhLmFzc2VydGlvbnMvYzJwYS5oYXNoLmRhdGFkaGFzaFggO7ixB5XEcj9yDSp/pAVWiLbZnt9NEQYlE+Ucf0Ym49R0Y2xhaW1fZ2VuZXJhdG9yX2luZm+jZG5hbWVvQW50aHJvcGljIEZpbGVzZ3ZlcnNpb25lMS4wLjBrc3BlY1ZlcnNpb25lMi40LjAAABA4anVtYgAAAChqdW1kYzJjcwARABCAAACqADibcQNjMnBhLnNpZ25hdHVyZQAAABAIY2JvctKEWQISogEmGCFZAgowggIGMIIBjaADAgECAhRA5aAK7sI50L64g/oGQgU9Z1UTADAKBggqhkjOPQQDAzBJMRcwFQYDVQQKEw5BbnRocm9waWMsIFBCQzEuMCwGA1UEAxMlQW50aHJvcGljIENvbnRlbnQgQ3JlZGVudGlhbHMgUm9vdCBDQTAeFw0yNjA4MDcxODQzNTZaFw0yODA4MDYxOTQzNTZaMEQxFzAVBgNVBAoTDkFudGhyb3BpYywgUEJDMSkwJwYDVQQDEyBBbnRocm9waWMgQ2xhdWRlIENvbnRlbnQgU2lnbmluZzBZMBMGByqGSM49AgEGCCqGSM49AwEHA0IABJh6CmvLUBgFFNU0vUKlOVtE6djd17L5SuwX0LemFisBM3dkd/3cyjxFA3Qo5S46fX0/ihY0VZ7mfb9KF703t5OjWDBWMA4GA1UdDwEB/wQEAwIHgDAVBgNVHSUEDjAMBgorBgEEAYPoXgIBMAwGA1UdEwEB/wQCMAAwHwYDVR0jBBgwFoAUzlHiBIFOZFsj+OPEz5o+nMHXXMIwCgYIKoZIzj0EAwMDZwAwZAIwMXMdFJ4BetLLVY7ORuE9noqbbAZOZn/aArXyTwFAZfKrPzxF2vPoJNf1+UCdg1XGAjBwX1zd9WGqYkqmL5SFqw1QySjr1zJfpJM9+1rdDwSPLMOPOjKuiXjoU/pUUeG9RwmhY3BhZFkNngAAAAAAAAAAAAAAAAAAAAAAAAAAAAAAAAAAAAAAAAAAAAAAAAAAAAAAAAAAAAAAAAAAAAAAAAAAAAAAAAAAAAAAAAAAAAAAAAAAAAAAAAAAAAAAAAAAAAAAAAAAAAAAAAAAAAAAAAAAAAAAAAAAAAAAAAAAAAAAAAAAAAAAAAAAAAAAAAAAAAAAAAAAAAAAAAAAAAAAAAAAAAAAAAAAAAAAAAAAAAAAAAAAAAAAAAAAAAAAAAAAAAAAAAAAAAAAAAAAAAAAAAAAAAAAAAAAAAAAAAAAAAAAAAAAAAAAAAAAAAAAAAAAAAAAAAAAAAAAAAAAAAAAAAAAAAAAAAAAAAAAAAAAAAAAAAAAAAAAAAAAAAAAAAAAAAAAAAAAAAAAAAAAAAAAAAAAAAAAAAAAAAAAAAAAAAAAAAAAAAAAAAAAAAAAAAAAAAAAAAAAAAAAAAAAAAAAAAAAAAAAAAAAAAAAAAAAAAAAAAAAAAAAAAAAAAAAAAAAAAAAAAAAAAAAAAAAAAAAAAAAAAAAAAAAAAAAAAAAAAAAAAAAAAAAAAAAAAAAAAAAAAAAAAAAAAAAAAAAAAAAAAAAAAAAAAAAAAAAAAAAAAAAAAAAAAAAAAAAAAAAAAAAAAAAAAAAAAAAAAAAAAAAAAAAAAAAAAAAAAAAAAAAAAAAAAAAAAAAAAAAAAAAAAAAAAAAAAAAAAAAAAAAAAAAAAAAAAAAAAAAAAAAAAAAAAAAAAAAAAAAAAAAAAAAAAAAAAAAAAAAAAAAAAAAAAAAAAAAAAAAAAAAAAAAAAAAAAAAAAAAAAAAAAAAAAAAAAAAAAAAAAAAAAAAAAAAAAAAAAAAAAAAAAAAAAAAAAAAAAAAAAAAAAAAAAAAAAAAAAAAAAAAAAAAAAAAAAAAAAAAAAAAAAAAAAAAAAAAAAAAAAAAAAAAAAAAAAAAAAAAAAAAAAAAAAAAAAAAAAAAAAAAAAAAAAAAAAAAAAAAAAAAAAAAAAAAAAAAAAAAAAAAAAAAAAAAAAAAAAAAAAAAAAAAAAAAAAAAAAAAAAAAAAAAAAAAAAAAAAAAAAAAAAAAAAAAAAAAAAAAAAAAAAAAAAAAAAAAAAAAAAAAAAAAAAAAAAAAAAAAAAAAAAAAAAAAAAAAAAAAAAAAAAAAAAAAAAAAAAAAAAAAAAAAAAAAAAAAAAAAAAAAAAAAAAAAAAAAAAAAAAAAAAAAAAAAAAAAAAAAAAAAAAAAAAAAAAAAAAAAAAAAAAAAAAAAAAAAAAAAAAAAAAAAAAAAAAAAAAAAAAAAAAAAAAAAAAAAAAAAAAAAAAAAAAAAAAAAAAAAAAAAAAAAAAAAAAAAAAAAAAAAAAAAAAAAAAAAAAAAAAAAAAAAAAAAAAAAAAAAAAAAAAAAAAAAAAAAAAAAAAAAAAAAAAAAAAAAAAAAAAAAAAAAAAAAAAAAAAAAAAAAAAAAAAAAAAAAAAAAAAAAAAAAAAAAAAAAAAAAAAAAAAAAAAAAAAAAAAAAAAAAAAAAAAAAAAAAAAAAAAAAAAAAAAAAAAAAAAAAAAAAAAAAAAAAAAAAAAAAAAAAAAAAAAAAAAAAAAAAAAAAAAAAAAAAAAAAAAAAAAAAAAAAAAAAAAAAAAAAAAAAAAAAAAAAAAAAAAAAAAAAAAAAAAAAAAAAAAAAAAAAAAAAAAAAAAAAAAAAAAAAAAAAAAAAAAAAAAAAAAAAAAAAAAAAAAAAAAAAAAAAAAAAAAAAAAAAAAAAAAAAAAAAAAAAAAAAAAAAAAAAAAAAAAAAAAAAAAAAAAAAAAAAAAAAAAAAAAAAAAAAAAAAAAAAAAAAAAAAAAAAAAAAAAAAAAAAAAAAAAAAAAAAAAAAAAAAAAAAAAAAAAAAAAAAAAAAAAAAAAAAAAAAAAAAAAAAAAAAAAAAAAAAAAAAAAAAAAAAAAAAAAAAAAAAAAAAAAAAAAAAAAAAAAAAAAAAAAAAAAAAAAAAAAAAAAAAAAAAAAAAAAAAAAAAAAAAAAAAAAAAAAAAAAAAAAAAAAAAAAAAAAAAAAAAAAAAAAAAAAAAAAAAAAAAAAAAAAAAAAAAAAAAAAAAAAAAAAAAAAAAAAAAAAAAAAAAAAAAAAAAAAAAAAAAAAAAAAAAAAAAAAAAAAAAAAAAAAAAAAAAAAAAAAAAAAAAAAAAAAAAAAAAAAAAAAAAAAAAAAAAAAAAAAAAAAAAAAAAAAAAAAAAAAAAAAAAAAAAAAAAAAAAAAAAAAAAAAAAAAAAAAAAAAAAAAAAAAAAAAAAAAAAAAAAAAAAAAAAAAAAAAAAAAAAAAAAAAAAAAAAAAAAAAAAAAAAAAAAAAAAAAAAAAAAAAAAAAAAAAAAAAAAAAAAAAAAAAAAAAAAAAAAAAAAAAAAAAAAAAAAAAAAAAAAAAAAAAAAAAAAAAAAAAAAAAAAAAAAAAAAAAAAAAAAAAAAAAAAAAAAAAAAAAAAAAAAAAAAAAAAAAAAAAAAAAAAAAAAAAAAAAAAAAAAAAAAAAAAAAAAAAAAAAAAAAAAAAAAAAAAAAAAAAAAAAAAAAAAAAAAAAAAAAAAAAAAAAAAAAAAAAAAAAAAAAAAAAAAAAAAAAAAAAAAAAAAAAAAAAAAAAAAAAAAAAAAAAAAAAAAAAAAAAAAAAAAAAAAAAAAAAAAAAAAAAAAAAAAAAAAAAAAAAAAAAAAAAAAAAAAAAAAAAAAAAAAAAAAAAAAAAAAAAAAAAAAAAAAAAAAAAAAAAAAAAAAAAAAAAAAAAAAAAAAAAAAAAAAAAAAAAAAAAAAAAAAAAAAAAAAAAAAAAAAAAAAAAAAAAAAAAAAAAAAAAAAAAAAAAAAAAAAAAAAAAAAAAAAAAAAAAAAAAAAAAAAAAAAAAAAAAAAAAAAAAAAAAAAAAAAAAAAAAAAAAAAAAAAAAAAAAAAAAAAAAAAAAAAAAAAAAAAAAAAAAAAAAAAAAAAAAAAAAAAAAAAAAAAAAAAAAAAAAAAAAAAAAAAAAAAAAAAAAAAAAAAAAAAAAAAAAAAAAAAAAAAAAAAAAAAAAAAAAAAAAAAAAAAAAAAAAAAAAAAAAAAAAAAAAAAAAAAAAAAAAAAAAAAAAAAAAAAAAAAAAAAAAAAAAAAAAAAAAAAAAAAAAAAAAAAAAAAAAAAAAAAAAAAAAAAAAAAAAAAAAAAAAAAAAAAAAAAAAAAAAAAAAAAAAAAAAAAAAAAAAAAAAAAAAAAAAAAAAAAAAAAAAAAAAAAAAAAAAAAAAAAAAAAAAAAAAAAAAAAAAAAAAAAAAAAAAAAAAAAAAAAAAAAAAAAAAAAAAAAAAAAAAAAAAAAAAAAAAAAAAAAAAAAAAAAAAAAAAAAAAAAAAAAAAAAAAAAAAAAAAAAAAAAAAAAAAAAAAAAAAAAAAAAAAAAAAAAAAAAAAAAAAAAAAAAAAAAAAAAAAAAAAAAAAAAAAAAAAAAAAAAAAAAAAAAAAAAAAAAAAAAAAAAAAAAAAAAAAAAAAAAAAAAAAAAAAAAAAAAAAAAAAAAAAAAAAAAAAAAAAAAAAAAAAAAAAAAAAAAAAAAAAAAAAAAAAAAAAAAAAAAAAAAAAAAAAAAAAAAAAAAAAAAAAAAAAAAAAAAAAAAAAAAAAAAAAAAAAAAAAAAAAAAAAAAAAAAAAAAAAAAAAAAAAAAAAAAAAAAAAAAAAAAAAAAAAAAAAAAAAAAAAAAAAAAAAAAAAAAAAAAAAAAAAAAAAAAAAAAAAAAAAAAAAAAAAAAAAAAAAAAAAAAAAAAAAAAAAAAAAAAAAAAAAAAAAAAAAAAAAAAAAAAAAAAAAAAAAAAAAAAAAAAAAAAAAAAAAAAAAAAAAAAAAAAAAAAAAAAAAAAAAAAAAAAAAAAAAAAAAAAAAAAAAAAAAAAAAAAAAAAAAAAAAAAAAAAAAAAAAAAAAAAAAAAAAAAAAAAAAAAAAAAAAAAAAAAAAAAAAAAAAAAAAAAAAAAAAAAAAAAAAAAAAAAAAAAAAAAAAAAAAAAAAAAAAAAAAAAAAAAAAAAAAAAAAAAAAAAAAAAAAAAAAAAAAAAAAAAAAAAAAAAAAAAAAAAAAAAAAAAAAAAAAAAAAAAAAAAAAAAAAAAAAAAAAAAAAAAAAAAAAAAAAAAAAAAAAAAAAAAAAAAAAAAAAAAAAAAAAAAAAAAAAAAAAAAAAAAAAAAAAAAAAAAAAAAAAAAAAAAAAAAAAAAAAAAAAAAAAAAAAAAAAAAAAAAAAAAAAAAAAAAAAAAAAAAAAAAAAAAAAAAAAAAAAAAAAAAAAAAAAAAAAAAAAAAAAAAAAAAAAAAAAAAAAAAAAAAAAAAAAAAAAAAAAAAAAAAAAAAAAAAAAAAAAAAAAAAAAAAAAAAAAAAAAAAAAAAAAAAAAAAAAAAAAAAAAAAAAAAAAAAAAAAAAAAAAAAAAAAAAAAAAAAAAAAAAAAAAAAAAAAAAAAAAAAAAAAAAAAAAAAAAAAAAAAAAAAAAAAAAAAAAAAAAAAAAAAAAAAAAAAAAAAAAAAAAAAAAAAAAAAAAAAAAAAAAAAAAAAAAAAAAAAAAAAAAAAAAAAAAAAAAAAAAAAAAAAAAAAAAAAAAAAAAAAAAAAAAAAAAAAAAAAAAAAAAAAAAAAAAAAAAAAAAAAAAAAAAAAAAAAAAAAAAAAAAAAAAAAAAAAAAAAAPZYQNiozniFDLm+HcFwHISOYh9rMPAGKM187VCvVc5QZWRbEu7uoiiAF8qG16wfr4+42EXutjP/n9Iu8ngIAViRCDQ=</c2pa:manifest></metadata><circle cx="615.6" cy="615.6" r="615.6" fill="#f4f0e8" stroke="#b8965a" stroke-width="7"/><path fill="#ffffff" fill-rule="evenodd" d="M442.6 1072.1 L429.6 1071.8 L412.6 1070.1 L393.6 1066.2 L377.6 1061.3 L369.6 1058.4 L358.6 1053.4 L346.6 1047.2 L323.6 1033.6 L320.6 1032.4 L318.6 1032.8 L316.6 1035.1 L303.6 1057.8 L301.6 1058.5 L298.6 1058.4 L297.5 1058.1 L296.7 1057.1 L296.3 1050.1 L296.3 948.1 L297.2 926.1 L297.6 924.6 L298.6 923.9 L302.6 923.8 L304.2 925.1 L306.3 941.1 L309.3 956.1 L312.3 966.1 L318.5 982.1 L327.5 999.1 L332.6 1006.8 L339.9 1016.1 L353.8 1030.1 L360.6 1035.4 L374.6 1044.3 L382.6 1048.3 L395.6 1053.4 L411.6 1057.5 L421.6 1058.8 L436.6 1059.5 L447.6 1058.7 L457.6 1057.4 L469.6 1054.3 L480.6 1050.2 L494.6 1042.7 L501.6 1037.6 L510.6 1029.7 L516.6 1023.1 L522.5 1015.1 L526.0 1009.1 L531.0 998.1 L534.9 985.1 L536.8 973.1 L537.5 963.1 L536.8 948.1 L533.7 935.1 L530.8 927.1 L526.0 918.1 L521.6 911.7 L516.2 905.1 L505.0 894.1 L490.6 882.9 L472.6 871.7 L441.6 855.8 L403.6 837.5 L375.6 822.1 L359.6 811.3 L348.6 802.3 L342.6 796.6 L332.0 785.1 L324.6 775.1 L317.5 763.1 L312.4 752.1 L308.4 740.1 L305.5 727.1 L304.3 717.1 L303.9 702.1 L305.5 686.1 L308.6 671.1 L312.3 660.1 L316.4 651.1 L323.6 638.3 L332.6 625.8 L339.6 618.1 L347.1 611.1 L360.0 601.1 L375.7 592.1 L390.6 585.9 L399.8 583.1 L409.6 580.8 L422.6 578.9 L438.6 578.1 L456.6 579.1 L472.1 582.1 L489.6 587.9 L505.6 596.0 L529.6 612.9 L531.6 612.9 L534.0 611.1 L536.9 605.1 L538.9 597.1 L539.4 589.1 L539.7 503.1 L539.5 501.1 L538.6 499.5 L532.6 496.3 L528.6 494.8 L520.6 493.7 L511.6 493.8 L478.6 498.2 L460.6 499.3 L442.6 498.4 L427.6 495.1 L418.6 491.6 L410.6 487.4 L402.8 482.1 L396.6 476.4 L391.6 470.9 L387.6 465.0 L383.6 457.1 L382.5 454.1 L382.6 452.2 L394.6 459.2 L404.6 463.5 L413.6 466.3 L425.6 468.4 L438.6 469.6 L451.6 470.0 L497.6 469.8 L504.6 470.3 L512.6 471.9 L520.6 474.7 L526.6 478.0 L531.6 481.7 L538.6 488.8 L539.5 488.1 L539.7 487.1 L539.6 478.1 L538.9 476.1 L534.6 471.0 L525.6 463.7 L516.6 459.0 L504.6 454.8 L499.6 453.6 L489.6 452.4 L440.6 450.5 L420.6 448.3 L406.6 446.0 L392.6 442.3 L378.6 437.5 L369.0 433.1 L359.6 427.6 L348.6 419.7 L339.5 411.1 L331.6 401.6 L325.5 392.1 L319.4 378.1 L315.6 365.1 L314.4 355.1 L314.6 354.2 L315.6 354.7 L322.0 364.1 L326.6 369.1 L333.6 375.2 L340.6 380.2 L349.6 385.3 L363.6 391.5 L381.6 397.3 L398.6 401.3 L423.6 405.4 L461.6 410.0 L473.5 412.1 L489.6 416.4 L504.4 423.1 L516.5 431.1 L522.6 436.9 L526.6 442.1 L530.7 449.1 L538.6 467.3 L539.5 465.1 L539.7 406.1 L539.6 144.1 L538.8 127.1 L537.0 118.1 L533.9 110.1 L530.1 104.1 L524.6 98.6 L515.6 92.9 L510.6 90.9 L503.6 89.0 L494.6 87.7 L478.9 87.1 L477.8 85.1 L478.0 80.1 L479.6 79.0 L484.6 78.7 L582.6 80.3 L680.6 79.0 L681.9 80.1 L682.1 82.1 L681.8 86.1 L680.6 87.2 L667.6 87.7 L654.6 89.7 L644.8 93.1 L639.6 95.9 L635.6 98.8 L630.6 104.1 L626.2 111.1 L623.5 118.1 L621.4 129.1 L620.6 140.1 L620.4 159.1 L620.3 640.1 L617.9 672.1 L613.2 701.1 L608.1 721.1 L599.7 744.1 L591.6 760.0 L583.1 773.1 L577.6 780.1 L569.6 788.5 L558.5 798.1 L553.1 802.1 L544.6 807.2 L529.0 815.1 L529.0 816.1 L529.6 816.6 L543.6 827.1 L552.6 834.6 L564.6 847.2 L570.0 854.1 L575.3 862.1 L578.7 868.1 L584.0 879.1 L587.6 889.1 L590.7 900.1 L594.0 920.1 L594.5 934.1 L594.1 948.1 L591.0 969.1 L587.8 980.1 L582.6 992.6 L577.8 1002.1 L573.4 1009.1 L564.2 1021.1 L559.6 1026.1 L553.6 1031.9 L541.2 1042.1 L531.6 1048.3 L521.3 1054.1 L505.2 1061.1 L495.6 1064.3 L484.6 1067.2 L469.6 1070.1 L457.6 1071.4 L442.6 1072.1ZM524.6 424.7 L523.6 424.2 L515.8 415.1 L508.6 409.5 L498.6 403.9 L490.6 400.4 L478.6 396.5 L465.6 393.7 L412.5 386.1 L390.6 381.5 L373.6 376.3 L363.6 372.4 L348.6 365.1 L335.6 357.2 L326.6 350.3 L316.6 340.9 L305.6 326.7 L299.5 316.1 L295.6 307.1 L291.6 292.1 L290.4 279.1 L290.6 273.1 L291.6 270.1 L292.6 270.7 L296.4 279.1 L299.6 284.0 L308.6 294.2 L322.6 305.3 L330.6 310.3 L342.6 316.4 L361.6 324.4 L389.6 333.3 L406.6 337.3 L437.6 343.7 L457.6 348.8 L473.6 354.6 L490.6 363.7 L499.6 370.6 L505.6 376.3 L510.6 382.3 L514.6 388.4 L519.0 397.1 L522.7 408.1 L524.9 419.1 L525.1 423.1 L524.6 424.7ZM503.0 799.1 L505.6 797.5 L512.1 790.1 L518.6 779.0 L522.8 770.1 L529.4 751.1 L532.0 741.1 L534.9 726.1 L538.4 698.1 L539.0 686.1 L538.8 676.1 L537.9 669.1 L535.1 658.1 L532.8 652.1 L528.7 644.1 L522.9 635.1 L517.6 628.4 L511.6 621.5 L504.6 614.9 L489.6 603.7 L480.6 598.7 L470.6 594.7 L463.6 592.6 L454.6 590.9 L444.6 590.0 L430.6 590.4 L412.6 593.7 L396.6 600.7 L386.0 608.1 L373.6 620.2 L364.2 634.1 L360.3 642.1 L357.3 650.1 L354.4 661.1 L353.5 667.1 L353.1 682.1 L355.2 697.1 L357.2 704.1 L360.2 711.1 L366.2 721.1 L376.6 732.8 L386.6 741.3 L403.6 752.6 L430.6 766.3 L476.6 787.0 L499.6 798.5 L501.6 799.2 L503.0 799.1ZM766.6 739.1 L758.6 739.2 L753.6 738.2 L747.4 735.1 L744.5 732.1 L743.3 730.1 L742.4 727.1 L741.7 720.1 L741.6 665.1 L741.0 664.1 L739.6 663.4 L732.6 662.7 L731.5 662.1 L731.4 661.1 L732.5 660.1 L739.9 657.1 L745.6 652.2 L750.1 646.1 L754.4 638.1 L755.6 637.3 L756.6 640.1 L756.8 657.1 L757.3 659.1 L759.6 659.7 L773.6 659.6 L775.1 660.1 L775.6 661.1 L774.6 663.1 L758.6 663.3 L757.0 664.1 L756.7 665.1 L756.6 717.1 L757.0 723.1 L758.1 728.1 L760.6 731.6 L763.6 733.3 L765.6 733.8 L772.4 733.1 L779.6 728.9 L780.4 730.1 L778.6 733.1 L774.6 736.2 L770.6 738.3 L766.6 739.1ZM690.6 739.1 L684.6 739.4 L675.6 738.3 L669.6 736.3 L662.3 732.1 L656.6 726.8 L652.5 721.1 L649.5 714.1 L647.4 705.1 L647.2 697.1 L648.5 689.1 L651.6 680.4 L656.6 672.2 L663.6 665.5 L669.6 661.8 L674.6 659.8 L682.6 658.3 L686.6 658.1 L696.3 659.1 L702.6 661.6 L707.6 664.8 L710.6 667.5 L714.0 672.1 L716.7 678.1 L717.9 683.1 L718.0 688.1 L716.6 689.3 L668.6 689.3 L665.6 689.6 L664.6 690.5 L664.3 703.1 L665.1 710.1 L666.2 714.1 L668.4 720.1 L671.4 725.1 L673.6 727.7 L677.6 730.7 L681.6 732.7 L685.6 733.8 L691.6 734.1 L696.6 733.6 L705.6 730.3 L709.6 727.8 L713.6 723.9 L714.4 724.1 L714.4 725.1 L711.6 728.7 L707.6 732.5 L704.6 734.5 L697.6 737.8 L690.6 739.1ZM701.1 686.1 L702.6 685.2 L703.1 684.1 L703.1 679.1 L702.1 673.1 L699.7 668.1 L697.6 665.3 L694.6 663.1 L690.6 661.5 L686.6 660.9 L678.6 662.3 L673.6 665.8 L670.4 670.1 L667.9 675.1 L666.3 680.1 L665.3 685.1 L665.9 686.1 L667.6 686.5 L701.1 686.1ZM881.6 921.2 L876.6 921.5 L873.6 920.6 L870.7 918.1 L869.2 915.1 L868.9 912.1 L869.6 908.1 L871.8 905.1 L875.6 902.9 L879.6 902.3 L882.6 902.9 L886.5 906.1 L887.9 909.1 L888.0 914.1 L886.9 917.1 L884.6 919.5 L881.6 921.2ZM746.6 1018.3 L723.6 1018.5 L711.9 1018.1 L711.6 1017.0 L716.6 1015.5 L719.2 1014.1 L720.7 1012.1 L721.3 1010.1 L721.5 971.1 L721.3 957.1 L720.5 952.1 L718.6 948.8 L715.6 946.9 L711.6 946.1 L711.1 945.1 L711.6 944.7 L726.6 941.5 L732.6 939.5 L733.6 939.8 L734.2 941.1 L735.5 954.1 L736.6 954.8 L741.2 948.1 L744.6 944.4 L749.6 941.0 L753.6 939.6 L758.6 938.8 L764.6 939.7 L768.8 942.1 L771.6 945.8 L772.1 949.1 L771.4 952.1 L769.6 954.1 L766.6 954.8 L763.7 954.1 L761.6 952.4 L758.6 946.6 L756.6 944.7 L753.6 944.2 L750.6 944.9 L747.2 947.1 L744.0 950.1 L740.4 955.1 L738.4 959.1 L736.9 965.1 L736.5 971.1 L736.7 1010.1 L737.2 1012.1 L738.6 1014.2 L741.6 1015.8 L747.6 1017.0 L747.3 1018.1 L746.6 1018.3ZM672.6 1020.2 L665.6 1020.7 L657.6 1020.1 L649.6 1018.1 L642.6 1014.6 L636.6 1009.4 L632.1 1004.1 L629.6 999.1 L627.4 992.1 L626.4 983.1 L626.7 976.1 L628.5 967.1 L632.2 959.1 L636.6 952.7 L642.6 946.8 L649.6 942.7 L658.6 940.0 L664.6 939.3 L671.6 939.7 L676.6 940.7 L682.6 943.2 L687.8 947.1 L692.7 953.1 L695.3 958.1 L696.8 963.1 L697.3 969.1 L696.8 970.1 L695.6 970.6 L646.6 970.7 L644.6 971.0 L643.8 972.1 L643.3 983.1 L644.0 991.1 L645.2 996.1 L648.1 1003.1 L651.6 1007.7 L654.6 1010.4 L658.8 1013.1 L662.6 1014.6 L666.6 1015.4 L673.6 1015.4 L681.6 1013.6 L687.6 1010.4 L692.6 1006.3 L693.6 1006.7 L693.3 1008.1 L691.8 1010.1 L686.6 1014.4 L679.6 1018.3 L672.6 1020.2ZM897.6 1018.2 L887.6 1018.5 L863.1 1018.1 L862.9 1017.1 L868.6 1015.7 L871.2 1014.1 L872.3 1012.1 L872.9 1006.1 L872.9 954.1 L871.2 949.1 L868.6 947.1 L864.3 946.1 L863.5 945.1 L864.6 944.4 L879.6 941.6 L885.6 939.9 L886.6 939.8 L887.6 940.5 L888.0 943.1 L888.2 1010.1 L890.0 1014.1 L892.6 1015.6 L897.9 1017.1 L897.6 1018.2ZM956.6 1020.1 L948.6 1020.8 L940.6 1020.2 L931.6 1017.2 L925.6 1013.3 L920.6 1008.8 L915.4 1001.1 L912.6 993.1 L911.5 987.1 L911.2 978.1 L912.4 971.1 L915.3 963.1 L919.4 956.1 L927.2 948.1 L931.6 944.9 L940.6 940.9 L947.6 939.5 L952.6 939.2 L959.6 939.8 L967.6 941.9 L970.6 943.5 L973.3 946.1 L974.6 948.1 L975.4 951.1 L975.0 955.1 L973.6 957.1 L971.6 958.3 L967.6 958.4 L965.0 957.1 L963.3 955.1 L962.3 952.1 L962.3 947.1 L960.6 944.5 L957.6 943.0 L954.6 942.5 L946.6 943.5 L940.6 946.5 L936.6 950.5 L932.4 957.1 L929.4 965.1 L927.8 980.1 L929.1 994.1 L931.7 1002.1 L937.6 1009.9 L945.6 1014.5 L949.6 1015.3 L954.6 1015.4 L960.6 1014.5 L963.6 1013.5 L969.6 1010.8 L974.6 1006.8 L975.6 1006.5 L976.0 1007.1 L974.3 1010.1 L968.6 1015.3 L962.6 1018.4 L956.6 1020.1ZM1034.6 1020.2 L1029.6 1020.7 L1019.6 1020.2 L1011.6 1018.2 L1004.6 1014.3 L999.2 1010.1 L995.3 1005.1 L992.5 1000.1 L989.6 990.6 L988.9 981.1 L989.4 974.1 L991.6 965.3 L995.3 958.1 L999.6 952.2 L1004.9 947.1 L1012.6 942.3 L1020.6 939.9 L1026.6 939.4 L1033.6 939.8 L1044.6 943.6 L1050.5 948.1 L1054.7 953.1 L1056.8 957.1 L1058.8 963.1 L1059.4 969.1 L1059.0 970.1 L1057.6 970.6 L1009.6 970.5 L1007.6 970.7 L1006.2 972.1 L1005.7 977.1 L1005.7 985.1 L1007.2 995.1 L1009.3 1001.1 L1011.5 1005.1 L1014.6 1008.9 L1017.6 1011.4 L1020.6 1013.2 L1024.6 1014.5 L1029.6 1015.3 L1034.6 1015.2 L1040.6 1014.3 L1043.6 1013.2 L1049.6 1010.1 L1054.6 1005.9 L1055.7 1006.1 L1054.4 1009.1 L1049.0 1014.1 L1041.6 1018.1 L1034.6 1020.2ZM815.6 1020.3 L813.6 1019.4 L812.3 1017.1 L784.0 950.1 L781.6 946.4 L776.0 942.1 L776.6 941.6 L803.6 941.0 L808.6 941.3 L809.6 942.0 L808.9 943.1 L804.6 944.1 L802.6 945.4 L801.6 947.1 L801.4 950.1 L804.3 959.1 L819.3 998.1 L820.6 1000.3 L821.6 1000.2 L822.3 999.1 L825.1 992.1 L835.8 964.1 L839.5 952.1 L839.6 949.1 L838.3 946.1 L836.6 944.7 L832.2 943.1 L831.0 942.1 L832.6 941.3 L841.6 941.0 L852.6 941.3 L854.4 942.1 L853.7 943.1 L850.6 944.5 L847.6 946.9 L844.6 952.1 L823.4 1004.1 L821.9 1009.1 L818.0 1018.1 L815.6 1020.3ZM680.9 967.1 L682.1 966.1 L682.3 965.1 L682.0 959.1 L680.8 954.1 L678.9 950.1 L676.6 947.1 L673.6 944.9 L670.6 943.4 L667.6 942.6 L662.6 942.6 L659.6 943.3 L656.6 944.7 L652.6 947.8 L647.6 955.1 L644.7 965.1 L644.8 966.1 L646.6 967.2 L680.9 967.1ZM1043.1 967.1 L1044.1 966.1 L1044.2 965.1 L1043.8 959.1 L1042.7 954.1 L1040.8 950.1 L1038.6 947.1 L1034.6 943.8 L1028.6 942.3 L1024.6 942.4 L1020.6 943.6 L1014.6 947.9 L1010.1 955.1 L1008.3 960.1 L1007.2 965.1 L1007.6 966.8 L1009.6 967.5 L1043.1 967.1Z"/></svg>